<svg width="13" height="19" viewBox="0 0 13 19" fill="none" xmlns="http://www.w3.org/2000/svg">
<path fill-rule="evenodd" clip-rule="evenodd" d="M7.70707 0.296444C7.89556 0.360286 8.06023 0.487225 8.17712 0.6588C8.29401 0.830375 8.35704 1.03764 8.35703 1.25044V6.25045H12.0711C12.2409 6.25037 12.4075 6.30046 12.5528 6.39527C12.698 6.49009 12.8163 6.62599 12.8948 6.78819C12.9734 6.95039 13.0091 7.13268 12.9981 7.31522C12.9871 7.49775 12.9298 7.67354 12.8325 7.82345L6.33287 17.8235C6.21975 17.998 6.05787 18.1291 5.87078 18.1977C5.6837 18.2663 5.48117 18.2689 5.29265 18.2049C5.10414 18.141 4.93948 18.014 4.82264 17.8423C4.70579 17.6707 4.64285 17.4633 4.64298 17.2505V12.2505H0.928926C0.759084 12.2505 0.592474 12.2004 0.44723 12.1056C0.301985 12.0108 0.183669 11.8749 0.105158 11.7127C0.0266476 11.5505 -0.00905022 11.3682 0.00194972 11.1857C0.0129497 11.0032 0.070226 10.8274 0.167545 10.6775L6.66713 0.677444C6.78042 0.503231 6.94233 0.372456 7.12935 0.30412C7.31636 0.235784 7.51873 0.233445 7.70707 0.297444V0.296444Z" fill="#DD8A29"/>
</svg>
