<svg width="172" height="42" viewBox="0 0 172 42" fill="none" xmlns="http://www.w3.org/2000/svg">
<g clip-path="url(#clip0_695_6)">
<path d="M133.933 2.5494H131.261C130.298 2.5494 129.518 3.3273 129.518 4.28689V7.30125C129.518 8.26084 130.298 9.03874 131.261 9.03874H133.933C134.896 9.03874 135.676 8.26084 135.676 7.30125V4.28689C135.676 3.3273 134.896 2.5494 133.933 2.5494Z" fill="white"/>
<path d="M51.2602 12.0191H46.4563C45.9661 12.0191 45.5311 12.3478 45.3993 12.8183L42.2954 23.8545L38.8215 12.787C38.6776 12.328 38.2563 12.0191 37.7738 12.0191H32.9743C32.6082 12.0191 32.2674 12.1999 32.0628 12.5028C31.8582 12.8057 31.8191 13.1882 31.9569 13.5263L39.1446 31.1166C39.1165 31.2705 39.0812 31.4277 39.0382 31.586C38.9731 31.8251 38.9075 32.0208 38.8435 32.167L38.822 32.2209C38.5706 32.9036 38.3164 33.5209 38.066 34.0546C37.8372 34.541 37.5929 34.9461 37.3393 35.2583C37.1171 35.5321 36.8777 35.7388 36.6285 35.8734C36.4057 35.9932 36.1488 36.0521 35.8444 36.0521C35.5742 36.0521 35.282 36.0334 34.9759 35.9965C34.6495 35.957 34.3324 35.9092 34.0336 35.8542C33.7457 35.8009 33.4744 35.7366 33.229 35.664C33.0702 35.6167 32.9296 35.5722 32.8116 35.531C32.5039 35.4238 32.1615 35.4463 31.8709 35.592C31.5814 35.7377 31.3598 35.9982 31.2638 36.3071L30.5139 38.7168C30.3485 39.2489 30.5668 39.8189 31.0455 40.1031C31.6746 40.4769 32.3948 40.7984 33.1849 41.059C34.0738 41.3519 35.0349 41.5003 36.0413 41.5003C37.293 41.5003 38.3737 41.3244 39.2543 40.9776C40.1465 40.6258 40.9361 40.108 41.6023 39.4374C42.2413 38.7938 42.8104 37.9973 43.2951 37.0706C43.745 36.2098 44.2182 35.2171 44.7017 34.1205L44.7139 34.0925L52.2908 13.4905C52.4144 13.1553 52.3653 12.7798 52.1602 12.4869C51.955 12.1939 51.6187 12.0191 51.2597 12.0191H51.2602Z" fill="white"/>
<path d="M71.9377 12.3708H67.28C66.8659 12.3708 66.53 12.7056 66.53 13.1184V26.1091C65.2056 26.8347 63.1543 27.6026 62.0432 27.6026C60.9321 27.6026 60.5478 27.0479 60.5478 26.1091V13.1184C60.5478 12.7056 60.212 12.3708 59.7978 12.3708H55.1401C54.7259 12.3708 54.3901 12.7056 54.3901 13.1184V26.8616C54.3901 30.8566 55.6297 33.4911 59.1786 33.4911C61.5728 33.4911 64.9072 32.7265 67.4724 31.4936L67.9235 32.6001C68.0382 32.8821 68.3133 33.0662 68.6182 33.0662H71.9377C72.3519 33.0662 72.6877 32.7315 72.6877 32.3187V13.1184C72.6877 12.7056 72.3519 12.3708 71.9377 12.3708Z" fill="white"/>
<path d="M106.281 12.4631C104.211 12.4631 101.598 12.7731 99.6567 13.2316C99.1726 13.3459 98.8627 13.8159 98.9509 14.304L99.4445 17.022C99.5354 17.5233 100.014 17.857 100.519 17.7729C102.149 17.5019 103.702 17.354 105.255 17.354C108.548 17.354 108.933 18.0587 108.933 20.1315V21.6651H104.442C100.166 21.6651 98.2418 23.2816 98.2418 27.3442C98.2418 30.7845 99.8238 33.4795 103.673 33.4795C105.084 33.4795 107.222 33.0651 109.617 31.78L109.829 32.4176C109.958 32.804 110.321 33.0651 110.729 33.0651H114.143C114.666 33.0651 115.091 32.6424 115.091 32.1202V20.1727C115.091 14.576 113.508 12.462 106.281 12.462L106.281 12.4631ZM108.756 27.4734C108.756 27.5926 108.685 27.7009 108.575 27.7471C107.687 28.1192 106.814 28.3732 105.598 28.3732C104.382 28.3732 103.91 27.9191 103.91 26.8C103.91 25.6809 104.429 25.3495 105.77 25.3495H108.458C108.622 25.3495 108.756 25.4825 108.756 25.6463V27.4734H108.756Z" fill="white"/>
<path d="M123.515 2.7644L119.247 3.36244C118.78 3.42785 118.434 3.8258 118.434 4.29522V32.1242C118.434 32.6442 118.857 33.0663 119.379 33.0663H123.647C124.168 33.0663 124.592 32.6447 124.592 32.1242V3.69718C124.592 3.12498 124.084 2.6847 123.515 2.7644H123.515Z" fill="white"/>
<path d="M130.569 12.3708H134.625C135.205 12.3708 135.676 12.8402 135.676 13.4185V32.0186C135.676 32.5968 135.205 33.0662 134.625 33.0662H130.569C129.989 33.0662 129.518 32.5968 129.518 32.0186V13.4185C129.518 12.8402 129.989 12.3708 130.569 12.3708Z" fill="white"/>
<path d="M152.66 3.08924C151.41 2.84354 150.303 2.6759 148.89 2.6759C143.844 2.6759 141.834 5.08947 141.834 9.39994V12.5462H139.659C139.111 12.5462 138.667 12.9887 138.667 13.5345V16.644C138.667 17.1898 139.111 17.6323 139.659 17.6323H141.834V32.078C141.834 32.6238 142.278 33.0663 142.826 33.0663H147.001C147.549 33.0663 147.992 32.6238 147.992 32.078V17.6323H151.571C152.086 17.6323 152.516 17.2387 152.559 16.7264L152.82 13.617C152.869 13.0404 152.413 12.5462 151.832 12.5462H147.992V10.0892C147.992 8.71011 148.12 7.84769 150.087 7.84769C150.566 7.84769 151.23 7.90375 151.871 7.99115C152.404 8.0637 152.896 7.69488 152.979 7.165L153.446 4.21221C153.529 3.68838 153.181 3.19148 152.659 3.08869L152.66 3.08924Z" fill="white"/>
<path d="M162.93 12.1674C156.261 12.1674 154.326 15.8623 154.326 20.1727V24.8526C154.326 29.7792 156.784 32.981 163.257 32.981C165.814 32.981 168.474 32.4621 170.288 31.869C170.556 31.7816 170.715 31.5063 170.661 31.2303L170.01 27.873C169.948 27.5531 169.628 27.3557 169.312 27.4376C167.618 27.8746 165.479 28.1374 163.831 28.1374C161.127 28.1374 160.226 27.5217 160.226 25.2225V24.9312C160.226 24.7751 160.353 24.6481 160.51 24.6481H170.464C170.782 24.6481 171.04 24.3909 171.04 24.0737V20.4608C171.04 16.1091 169.6 12.168 162.93 12.168V12.1674ZM165.411 19.5098C165.411 19.7319 165.23 19.9122 165.007 19.9122H160.712C160.489 19.9122 160.308 19.7319 160.308 19.5098V19.0498C160.308 17.6542 160.956 16.5048 162.981 16.5048C165.006 16.5048 165.411 17.6542 165.411 19.0498V19.5098Z" fill="white"/>
<path d="M94.0167 10.6558L91.033 10.232C90.5059 10.1572 90.0195 10.4969 89.9076 11.0009C89.783 11.3395 89.655 11.6941 89.5271 12.0497C89.413 12.368 89.2983 12.6857 89.1863 12.9913C87.6589 12.3537 86.062 12.0288 84.4354 12.025C83.7274 12.0228 82.0682 12.0195 80.4889 12.6752C77.3023 13.9988 75.0029 17.8844 75.0211 21.914C75.0371 25.3686 76.7536 29.5158 80.0037 30.7575C82.5225 31.72 85.5592 30.8642 86.8561 30.4992C87.5365 30.3073 88.2081 30.0649 88.8561 29.7769V31.6667C88.8803 32.2543 88.8152 33.7548 87.6926 34.9899C86.6829 36.1008 85.4081 36.3504 84.8633 36.457C83.4676 36.7307 82.3615 36.4009 81.7671 36.2239C80.9775 35.9887 80.2331 35.6237 79.5543 35.1394C79.1016 34.8157 78.4906 34.8652 78.1018 35.2565L76.3302 37.0391C76.1019 37.2688 75.9839 37.5854 76.0065 37.9081C76.0285 38.2269 76.1868 38.5204 76.4404 38.7139C77.1021 39.2174 77.8135 39.6593 78.5557 40.0282C80.9207 41.2033 83.1423 41.4221 84.4685 41.4221C84.6256 41.4221 84.7706 41.4188 84.9013 41.4139L84.9702 41.4111C86.3979 41.3578 89.3683 41.2473 91.7493 39.1306C93.8237 37.2875 94.8753 34.4683 94.8753 30.7515L94.862 11.7314L94.8918 11.7353C94.9354 11.2049 94.5521 10.73 94.0167 10.6541V10.6558ZM83.8481 25.6775C83.2873 25.6231 82.4398 25.5412 81.7886 25.0333C80.5694 24.0829 80.6935 22.2075 80.7343 21.5913C80.8192 20.3062 81.2598 19.2596 82.0444 18.4819C82.2242 18.3032 82.5986 17.9322 83.2134 17.6623C83.7318 17.4348 84.2683 17.3518 84.7971 17.3518C85.6022 17.3518 86.3912 17.5441 87.0789 17.7112C87.2989 17.7651 87.5205 17.8256 87.7367 17.8921C87.874 17.9339 87.9655 18.0592 87.965 18.2026L87.944 24.6062C87.944 24.7316 87.874 24.8431 87.7626 24.8965C87.6203 24.9646 87.4737 25.0295 87.327 25.0894C86.802 25.3032 86.2479 25.4626 85.6783 25.5632C85.2267 25.6429 84.6085 25.7517 83.8476 25.6781L83.8481 25.6775Z" fill="white"/>
<path d="M10.8868 0.499672H5.30045C4.56873 0.499672 3.97485 1.1054 3.97485 1.85295V9.90607C3.97485 10.6162 4.47774 10.9328 5.0082 11.2566C5.61586 11.6276 6.23013 11.9882 6.85599 12.3257C8.21963 13.0606 9.63345 13.6366 11.114 14.067C11.5761 14.2011 12.2113 14.1264 12.2113 13.497V1.85295C12.2113 1.1054 11.618 0.499672 10.8863 0.499672H10.8868Z" fill="white"/>
<path d="M23.0566 0.499672H28.6429C29.3746 0.499672 29.9685 1.1054 29.9685 1.85295C29.9685 1.85295 29.9685 9.90168 29.9685 9.90607C29.9685 10.6162 29.4656 10.9328 28.9352 11.2566C28.3275 11.6276 27.7132 11.9882 27.0874 12.3257C25.7237 13.0606 24.3099 13.6366 22.8294 14.067C22.3673 14.2011 21.7321 14.1264 21.7321 13.497V1.85295C21.7315 1.1054 22.3248 0.499672 23.0566 0.499672Z" fill="white"/>
<path d="M29.9686 9.97654C29.9686 9.77041 29.7563 9.63684 29.5765 9.73029C26.203 11.4788 22.664 13.1311 18.8692 13.5889C15.9654 13.9391 13.156 13.3295 10.4 12.4176C8.88529 11.9163 7.3882 11.3419 5.97107 10.5966C4.52251 9.83417 3.33807 8.81125 2.03564 7.83504C1.81783 7.67179 1.21624 7.16335 1.00615 7.56131C0.959829 7.64871 0.955418 7.75424 0.962035 7.85098C0.969755 7.96421 0.994568 8.0758 1.02379 8.18518C1.05192 8.29181 1.08555 8.39735 1.11643 8.50289C1.15613 8.64085 1.19914 8.77772 1.24546 8.91349C1.29233 9.05035 1.34141 9.18667 1.39324 9.32189C1.44507 9.4571 1.49911 9.59177 1.55425 9.72534C1.81948 10.3646 2.15088 10.9742 2.52639 11.5524C2.87323 12.0867 3.2901 12.5814 3.5647 13.1613C3.72902 13.5076 3.92312 14.0441 3.9744 14.7976C3.9744 14.8048 3.97495 14.8119 3.97495 14.8191L4.10619 31.5695C4.10619 32.3171 4.69951 32.9228 5.43179 32.9228H8.83897C9.72013 32.9228 10.4348 32.1934 10.4348 31.2936V20.6829C11.7333 21.2523 13.9693 22.0351 16.8378 22.0697C19.9191 22.1071 22.3122 21.2644 23.6405 20.6812V31.2931C23.6405 32.1929 24.3552 32.9223 25.2363 32.9223H28.3717C29.2528 32.9223 29.9675 32.1929 29.9675 31.2931V9.97654H29.9686Z" fill="white"/>
</g>
<defs>
<clipPath id="clip0_695_6">
<rect width="172" height="42" fill="white"/>
</clipPath>
</defs>
</svg>
